<svg version="1.1" id="Layer_1" xmlns="http://www.w3.org/2000/svg" xmlns:xlink="http://www.w3.org/1999/xlink" x="0px" y="0px"
	 width="100%" viewBox="0 0 2000 1500" enable-background="new 0 0 2000 1500" xml:space="preserve">
<path fill="#000000" opacity="1.000000" stroke="none" 
	d="
M2001.000000,504.000000 
	C2001.000000,836.666565 2001.000000,1168.833130 2001.000000,1500.999756 
	C1334.333618,1500.999878 667.667236,1500.999878 1.000670,1501.000000 
	C1.000447,1001.000427 1.000447,501.000885 1.000223,1.001005 
	C667.666016,1.000670 1334.332031,1.000670 2000.999023,1.000335 
	C2001.000000,168.500000 2001.000000,336.000000 2001.000000,504.000000 
M459.499969,1452.183228 
	C869.266357,1452.183228 1279.032715,1452.183228 1689.011475,1452.183228 
	C1689.011475,983.947571 1689.011475,516.387268 1689.011475,48.612686 
	C1221.108521,48.612686 753.549377,48.612686 285.724121,48.612686 
	C285.588806,50.182964 285.380066,51.476536 285.379791,52.770149 
	C285.364136,127.768585 285.393890,202.767075 285.285095,277.765350 
	C285.279480,281.638885 286.562469,282.458710 290.177917,282.435242 
	C313.343140,282.284760 336.509796,282.362488 359.675995,282.346161 
	C360.785400,282.345367 361.894684,282.165070 363.607025,282.015778 
	C363.607025,230.178619 363.607025,178.623184 363.607025,126.633400 
	C366.191986,126.633400 368.158142,126.633392 370.124268,126.633392 
	C781.615723,126.633369 1193.107178,126.633278 1604.598633,126.634087 
	C1611.093140,126.634094 1611.096436,126.639297 1611.096436,133.085754 
	C1611.097046,544.577209 1611.088135,956.068604 1611.202393,1367.560059 
	C1611.203735,1372.470947 1610.227783,1374.044678 1604.961060,1374.042969 
	C1193.136230,1373.909058 781.311523,1373.920044 369.486755,1373.919922 
	C367.704376,1373.919922 365.921997,1373.919800 363.501770,1373.919800 
	C363.501770,1321.762329 363.501770,1270.200928 363.501770,1218.407471 
	C337.273407,1218.407471 311.688721,1218.407471 285.738403,1218.407471 
	C285.738403,1296.358765 285.738403,1374.062378 285.738403,1452.183228 
	C343.573425,1452.183228 401.036682,1452.183228 459.499969,1452.183228 
M1031.396851,860.089905 
	C1036.934937,866.922607 1043.574097,873.141235 1047.794189,880.708923 
	C1058.305420,899.558777 1068.558105,918.643311 1077.412842,938.309753 
	C1106.277100,1002.418030 1134.383057,1066.867188 1162.957397,1131.106689 
	C1176.912476,1162.479736 1200.604492,1180.650635 1235.402832,1183.382568 
	C1263.505493,1185.588989 1290.870117,1181.578247 1317.770508,1173.776489 
	C1319.079346,1173.396973 1320.492432,1170.681396 1320.524658,1169.027466 
	C1320.758911,1157.032471 1320.650391,1145.030762 1320.650391,1133.031250 
	C1320.650391,1129.911743 1320.650513,1126.792114 1320.650513,1123.852661 
	C1319.498413,1123.464478 1319.046753,1123.237549 1318.571167,1123.162720 
	C1298.508057,1120.003662 1278.442749,1116.859009 1258.378052,1113.710449 
	C1254.562134,1113.111694 1251.660767,1112.240967 1249.678223,1107.815918 
	C1217.802734,1036.668823 1185.556396,965.688110 1153.569458,894.590759 
	C1136.174805,855.927612 1111.462158,824.171936 1071.980713,805.847168 
	C1070.596069,805.204407 1069.459595,803.008911 1069.108032,801.346619 
	C1067.982666,796.026672 1070.098755,792.813599 1075.194214,790.066101 
	C1116.281738,767.911194 1150.459229,738.226379 1174.093140,697.399780 
	C1196.691406,658.362183 1205.770752,615.804688 1206.463135,571.161560 
	C1207.027100,534.797546 1203.314575,498.975067 1191.508179,464.340973 
	C1175.979370,418.787201 1148.096191,383.139069 1106.267212,358.806763 
	C1075.981201,341.189087 1043.070801,331.110870 1008.811523,324.830902 
	C974.100464,318.468109 939.050720,316.239014 903.848877,316.396088 
	C860.789795,316.588165 818.028992,320.435730 775.570190,327.774933 
	C743.900085,333.249237 712.645325,340.401611 681.648682,349.414917 
	C681.648682,624.301819 681.648682,899.052917 681.648682,1174.277100 
	C683.572937,1174.277100 685.207520,1174.277100 686.842041,1174.277100 
	C711.841064,1174.277100 736.841919,1174.116333 761.837524,1174.408447 
	C767.023499,1174.468872 768.119507,1172.984863 768.112854,1167.993530 
	C767.963684,1055.664795 768.021851,943.335938 767.912109,831.007141 
	C767.907715,826.537048 768.927246,825.048523 773.701843,825.067078 
	C821.865845,825.253967 870.031921,825.008911 918.194946,825.293823 
	C931.495361,825.372437 944.854797,826.228271 958.069580,827.749268 
	C985.500610,830.906433 1010.284607,840.604492 1031.396851,860.089905 
z"/>
<path fill="#FDFDFD" opacity="1.000000" stroke="none" 
	d="
M458.999939,1452.183228 
	C401.036682,1452.183228 343.573425,1452.183228 285.738403,1452.183228 
	C285.738403,1374.062378 285.738403,1296.358765 285.738403,1218.407471 
	C311.688721,1218.407471 337.273407,1218.407471 363.501770,1218.407471 
	C363.501770,1270.200928 363.501770,1321.762329 363.501770,1373.919800 
	C365.921997,1373.919800 367.704376,1373.919922 369.486755,1373.919922 
	C781.311523,1373.920044 1193.136230,1373.909058 1604.961060,1374.042969 
	C1610.227783,1374.044678 1611.203735,1372.470947 1611.202393,1367.560059 
	C1611.088135,956.068604 1611.097046,544.577209 1611.096436,133.085754 
	C1611.096436,126.639297 1611.093140,126.634094 1604.598633,126.634087 
	C1193.107178,126.633278 781.615723,126.633369 370.124268,126.633392 
	C368.158142,126.633392 366.191986,126.633400 363.607025,126.633400 
	C363.607025,178.623184 363.607025,230.178619 363.607025,282.015778 
	C361.894684,282.165070 360.785400,282.345367 359.675995,282.346161 
	C336.509796,282.362488 313.343140,282.284760 290.177917,282.435242 
	C286.562469,282.458710 285.279480,281.638885 285.285095,277.765350 
	C285.393890,202.767075 285.364136,127.768585 285.379791,52.770149 
	C285.380066,51.476536 285.588806,50.182964 285.724121,48.612686 
	C753.549377,48.612686 1221.108521,48.612686 1689.011475,48.612686 
	C1689.011475,516.387268 1689.011475,983.947571 1689.011475,1452.183228 
	C1279.032715,1452.183228 869.266357,1452.183228 458.999939,1452.183228 
z"/>
<path fill="#FDFDFD" opacity="1.000000" stroke="none" 
	d="
M1031.156006,859.828125 
	C1010.284607,840.604492 985.500610,830.906433 958.069580,827.749268 
	C944.854797,826.228271 931.495361,825.372437 918.194946,825.293823 
	C870.031921,825.008911 821.865845,825.253967 773.701843,825.067078 
	C768.927246,825.048523 767.907715,826.537048 767.912109,831.007141 
	C768.021851,943.335938 767.963684,1055.664795 768.112854,1167.993530 
	C768.119507,1172.984863 767.023499,1174.468872 761.837524,1174.408447 
	C736.841919,1174.116333 711.841064,1174.277100 686.842041,1174.277100 
	C685.207520,1174.277100 683.572937,1174.277100 681.648682,1174.277100 
	C681.648682,899.052917 681.648682,624.301819 681.648682,349.414917 
	C712.645325,340.401611 743.900085,333.249237 775.570190,327.774933 
	C818.028992,320.435730 860.789795,316.588165 903.848877,316.396088 
	C939.050720,316.239014 974.100464,318.468109 1008.811523,324.830902 
	C1043.070801,331.110870 1075.981201,341.189087 1106.267212,358.806763 
	C1148.096191,383.139069 1175.979370,418.787201 1191.508179,464.340973 
	C1203.314575,498.975067 1207.027100,534.797546 1206.463135,571.161560 
	C1205.770752,615.804688 1196.691406,658.362183 1174.093140,697.399780 
	C1150.459229,738.226379 1116.281738,767.911194 1075.194214,790.066101 
	C1070.098755,792.813599 1067.982666,796.026672 1069.108032,801.346619 
	C1069.459595,803.008911 1070.596069,805.204407 1071.980713,805.847168 
	C1111.462158,824.171936 1136.174805,855.927612 1153.569458,894.590759 
	C1185.556396,965.688110 1217.802734,1036.668823 1249.678223,1107.815918 
	C1251.660767,1112.240967 1254.562134,1113.111694 1258.378052,1113.710449 
	C1278.442749,1116.859009 1298.508057,1120.003662 1318.571167,1123.162720 
	C1319.046753,1123.237549 1319.498413,1123.464478 1320.650513,1123.852661 
	C1320.650513,1126.792114 1320.650391,1129.911743 1320.650391,1133.031250 
	C1320.650391,1145.030762 1320.758911,1157.032471 1320.524658,1169.027466 
	C1320.492432,1170.681396 1319.079346,1173.396973 1317.770508,1173.776489 
	C1290.870117,1181.578247 1263.505493,1185.588989 1235.402832,1183.382568 
	C1200.604492,1180.650635 1176.912476,1162.479736 1162.957397,1131.106689 
	C1134.383057,1066.867188 1106.277100,1002.418030 1077.412842,938.309753 
	C1068.558105,918.643311 1058.305420,899.558777 1047.794189,880.708923 
	C1043.574097,873.141235 1036.934937,866.922607 1031.156006,859.828125 
M972.499939,746.727356 
	C987.330139,746.727356 1002.161377,746.811462 1016.989624,746.640808 
	C1019.333862,746.613770 1022.156799,746.068115 1023.924072,744.691284 
	C1037.690430,733.966980 1051.962524,723.747070 1064.731812,711.917786 
	C1092.793457,685.922119 1109.426025,653.549377 1114.955688,615.596436 
	C1119.427490,584.902710 1120.001465,554.185303 1114.993774,523.508972 
	C1111.142700,499.917877 1103.483032,477.739746 1089.160767,458.274170 
	C1069.660156,431.770447 1042.151733,417.788391 1011.435608,408.967010 
	C979.489624,399.792389 946.700623,396.875641 913.642761,396.349640 
	C866.862976,395.605347 820.488708,399.485138 774.543030,408.572601 
	C769.324402,409.604828 767.876221,411.243317 767.883362,416.439178 
	C768.032227,524.412720 767.995422,632.386597 767.996033,740.360352 
	C767.996033,746.724915 767.998840,746.726990 774.547729,746.727051 
	C840.198425,746.727539 905.849182,746.727356 972.499939,746.727356 
z"/>
<path fill="#010101" opacity="1.000000" stroke="none" 
	d="
M971.999878,746.727356 
	C905.849182,746.727356 840.198425,746.727539 774.547729,746.727051 
	C767.998840,746.726990 767.996033,746.724915 767.996033,740.360352 
	C767.995422,632.386597 768.032227,524.412720 767.883362,416.439178 
	C767.876221,411.243317 769.324402,409.604828 774.543030,408.572601 
	C820.488708,399.485138 866.862976,395.605347 913.642761,396.349640 
	C946.700623,396.875641 979.489624,399.792389 1011.435608,408.967010 
	C1042.151733,417.788391 1069.660156,431.770447 1089.160767,458.274170 
	C1103.483032,477.739746 1111.142700,499.917877 1114.993774,523.508972 
	C1120.001465,554.185303 1119.427490,584.902710 1114.955688,615.596436 
	C1109.426025,653.549377 1092.793457,685.922119 1064.731812,711.917786 
	C1051.962524,723.747070 1037.690430,733.966980 1023.924072,744.691284 
	C1022.156799,746.068115 1019.333862,746.613770 1016.989624,746.640808 
	C1002.161377,746.811462 987.330139,746.727356 971.999878,746.727356 
z"/>
</svg>