<svg xmlns="http://www.w3.org/2000/svg" version="1.1" xmlns:xlink="http://www.w3.org/1999/xlink" xmlns:svgjs="http://svgjs.dev/svgjs" width="2000" height="1500" viewBox="0 0 2000 1500"><rect width="2000" height="1500" fill="#000000"></rect><g transform="matrix(0.75,0,0,0.75,249.090909090909,278.98548387096776)"><svg viewBox="0 0 396 248" data-background-color="#000000" preserveAspectRatio="xMidYMid meet" height="1252" width="2000" xmlns="http://www.w3.org/2000/svg" xmlns:xlink="http://www.w3.org/1999/xlink"><g id="tight-bounds" transform="matrix(1,0,0,1,0.2400000000000091,0.4000000000000057)"><svg viewBox="0 0 395.52 247.2" height="247.2" width="395.52"><g><svg></svg></g><g><svg viewBox="0 0 395.52 247.2" height="247.2" width="395.52"><g transform="matrix(1,0,0,1,141.4700919175911,47.215199999999996)"><svg viewBox="0 0 112.57981616481774 152.7696" height="152.7696" width="112.57981616481774"><g><svg viewBox="0 0 112.57981616481774 152.7696" height="152.7696" width="112.57981616481774"><g><svg viewBox="0 0 112.57981616481774 152.7696" height="152.7696" width="112.57981616481774"><g><svg viewBox="0 0 112.57981616481774 152.7696" height="152.7696" width="112.57981616481774"><g id="textblocktransform"><svg viewBox="0 0 112.57981616481774 152.7696" height="152.7696" width="112.57981616481774" id="textblock"><g><svg viewBox="0 0 112.57981616481774 152.7696" height="152.7696" width="112.57981616481774"><g transform="matrix(1,0,0,1,0,0)"><svg width="112.57981616481774" viewBox="4.05 -31.2 23.25 31.55" height="152.7696" data-palette-color="#ffffff"><path d="M24.65 0.35Q23.5 0.35 22.75-0.13 22-0.6 21.55-1.6L21.55-1.6 18.5-8.5Q17.85-10 17.28-10.85 16.7-11.7 15.63-12.2 14.55-12.7 12.7-12.7L12.7-12.7 7.2-12.7 7.2 0 4.05 0 4.05-30Q8.2-31.2 12.25-31.2L12.25-31.2Q17.8-31.2 20.48-28.98 23.15-26.75 23.15-22.15L23.15-22.15Q23.15-16.45 18.15-13.85L18.15-13.85 18.15-13.45Q19.3-12.9 20-12.13 20.7-11.35 21.3-10L21.3-10 24.8-2.25 27.3-1.85 27.3-0.05Q26 0.35 24.65 0.35L24.65 0.35ZM7.2-15.55L16.4-15.55Q18.25-16.75 19.1-18.2 19.95-19.65 19.95-22.05L19.95-22.05Q19.95-25.4 18.1-26.85 16.25-28.3 12.1-28.3L12.1-28.3Q9.6-28.3 7.2-27.8L7.2-27.8 7.2-15.55Z" opacity="1" transform="matrix(1,0,0,1,0,0)" fill="#ffffff" class="wordmark-text-0" data-fill-palette-color="primary" id="text-0"></path></svg></g></svg></g></svg></g></svg></g></svg></g></svg></g></svg></g><path d="M71.749 41.215L71.749 0 318.949 0 318.949 247.2 71.749 247.2 71.749 205.985 85.526 205.985 85.526 233.423 305.172 233.423 305.172 13.777 85.526 13.777 85.526 41.215Z" fill="#ffffff" stroke="transparent" data-fill-palette-color="tertiary"></path></svg></g><defs></defs></svg><rect width="395.52" height="247.2" fill="none" stroke="none" visibility="hidden"></rect></g></svg></g></svg>